<svg width="376" height="307" viewBox="0 0 376 307" fill="none" xmlns="http://www.w3.org/2000/svg">
<rect width="376" height="307" fill="#333333"/>
<path d="M71.288 233.452C71.192 233.188 70.952 232.828 70.568 232.372C70.184 231.892 69.884 231.376 69.668 230.824C69.26 229.72 68.96 228.94 68.768 228.484C68.6 228.004 68.444 227.74 68.3 227.692C68.18 227.644 68.024 227.512 67.832 227.296C67.64 227.08 67.424 226.924 67.184 226.828C66.92 225.988 66.608 225.1 66.248 224.164C65.888 223.204 65.408 222.316 64.808 221.5C64.544 221.14 64.352 220.84 64.232 220.6C64.136 220.336 64.052 220.108 63.98 219.916C63.932 219.724 63.872 219.568 63.8 219.448C63.728 219.304 63.608 219.172 63.44 219.052V217.72C63.68 217.576 63.992 217.504 64.376 217.504C64.544 217.504 64.652 217.432 64.7 217.288C64.772 217.12 64.868 217 64.988 216.928C65.108 216.88 65.312 216.808 65.6 216.712C65.912 216.616 66.092 216.508 66.14 216.388L67.4 216.64C67.592 216.76 67.736 216.808 67.832 216.784C67.928 216.76 68.036 216.796 68.156 216.892C68.372 217.084 68.6 217.252 68.84 217.396C69.08 217.54 69.356 217.672 69.668 217.792C69.596 217.84 69.668 218.188 69.884 218.836C70.124 219.46 70.436 220.228 70.82 221.14C71.204 222.052 71.624 223.036 72.08 224.092C72.56 225.124 73.004 226.06 73.412 226.9C73.844 227.74 74.204 228.412 74.492 228.916C74.804 229.42 74.984 229.588 75.032 229.42C75.128 229.444 75.248 229.252 75.392 228.844C75.536 228.436 75.704 227.956 75.896 227.404C76.064 226.804 76.256 226.3 76.472 225.892C76.688 225.484 76.844 225.184 76.94 224.992C77.252 224.8 77.456 224.608 77.552 224.416C77.672 224.224 77.828 223.996 78.02 223.732C78.164 223.564 78.26 223.384 78.308 223.192C78.38 222.976 78.428 222.856 78.452 222.832C78.644 222.448 78.896 222.004 79.208 221.5C79.544 220.996 79.724 220.42 79.748 219.772C79.796 219.34 79.88 218.968 80 218.656C80.144 218.32 80.24 218.056 80.288 217.864L81.368 217.756L82.556 218.584C82.556 218.872 82.508 219.136 82.412 219.376C82.316 219.592 82.28 219.796 82.304 219.988C82.304 220.084 82.256 220.216 82.16 220.384C82.064 220.528 81.956 220.684 81.836 220.852C81.74 221.02 81.644 221.188 81.548 221.356C81.476 221.5 81.44 221.608 81.44 221.68C81.416 221.848 81.32 222.04 81.152 222.256C80.984 222.472 80.888 222.748 80.864 223.084C80.864 223.78 80.756 224.272 80.54 224.56C80.276 224.944 79.94 225.472 79.532 226.144C79.124 226.792 78.692 227.56 78.236 228.448C77.78 229.336 77.42 230.104 77.156 230.752C76.892 231.376 76.736 231.76 76.688 231.904L76.4 232.408L75.608 233.668C75.2 233.908 74.768 234.052 74.312 234.1C73.856 234.148 73.376 234.028 72.872 233.74L72.08 234.028L71.288 233.452ZM100.013 225.64C99.4849 225.568 99.0169 225.664 98.6089 225.928C98.4649 226 98.3209 226.072 98.1769 226.144C98.0329 226.192 97.8889 226.24 97.7449 226.288C97.6729 226.312 97.6009 226.336 97.5289 226.36C97.4569 226.384 97.3969 226.408 97.3489 226.432L92.3449 227.944C90.9529 227.632 90.4609 227.86 90.8689 228.628C90.9409 228.796 91.0369 229.048 91.1569 229.384C91.2769 229.72 91.3729 229.96 91.4449 230.104C91.7569 230.224 92.0809 230.416 92.4169 230.68C92.7529 230.92 93.0649 231.064 93.3529 231.112L94.0009 231.04C94.1689 231.04 94.3969 231.028 94.6849 231.004C94.9969 230.98 95.2969 230.944 95.5849 230.896C95.8969 230.824 96.1729 230.74 96.4129 230.644C96.6769 230.548 96.8569 230.428 96.9529 230.284C97.0249 230.164 97.1329 230.08 97.2769 230.032C97.4209 229.96 97.5649 229.9 97.7089 229.852C97.8049 229.828 97.8889 229.816 97.9609 229.816C98.0569 229.792 98.1649 229.768 98.2849 229.744L98.6809 231.148L98.2489 231.976C98.2249 232.024 98.1409 232.084 97.9969 232.156C97.8769 232.204 97.7329 232.276 97.5649 232.372C97.3969 232.468 97.2289 232.564 97.0609 232.66C96.9169 232.732 96.8089 232.804 96.7369 232.876C96.6889 232.924 96.5569 232.948 96.3409 232.948C96.1489 232.948 95.9209 232.948 95.6569 232.948C95.4169 232.948 95.1649 232.96 94.9009 232.984C94.6369 233.008 94.4329 233.056 94.2889 233.128C93.9529 233.296 93.6889 233.404 93.4969 233.452C93.3289 233.5 93.1849 233.536 93.0649 233.56C92.9449 233.608 92.8609 233.596 92.8129 233.524C92.7649 233.5 92.6809 233.488 92.5609 233.488C92.4889 233.488 92.3929 233.488 92.2729 233.488C92.1529 233.488 92.0329 233.476 91.9129 233.452C91.6009 233.428 91.3489 233.416 91.1569 233.416C90.9649 233.392 90.8449 233.38 90.7969 233.38L87.3409 231.688C87.2689 230.968 86.9329 230.608 86.3329 230.608C86.2129 230.608 86.0689 230.512 85.9009 230.32C85.7329 230.104 85.5889 229.876 85.4689 229.636C85.3729 229.516 85.2889 229.384 85.2169 229.24C85.1449 229.072 85.0729 228.892 85.0009 228.7L84.6769 224.596L85.0009 222.184C85.0249 222.088 85.0969 221.968 85.2169 221.824C85.3609 221.584 85.5409 221.224 85.7569 220.744C85.8529 220.528 86.0449 220.324 86.3329 220.132C86.6209 219.94 86.9209 219.772 87.2329 219.628C87.5689 219.46 87.8809 219.316 88.1689 219.196C88.4809 219.052 88.7089 218.932 88.8529 218.836C89.1409 218.884 89.5609 218.572 90.1129 217.9C90.2569 217.732 90.4369 217.6 90.6529 217.504C90.8689 217.384 91.0849 217.288 91.3009 217.216C91.4209 217.168 91.5529 217.132 91.6969 217.108C91.8409 217.084 91.9729 217.06 92.0929 217.036L96.3049 217.576C96.5449 217.624 96.7969 217.696 97.0609 217.792C97.2529 217.888 97.4449 218.008 97.6369 218.152C97.8289 218.296 97.9849 218.464 98.1049 218.656C98.2729 219.064 98.5129 219.4 98.8249 219.664C99.1369 219.904 99.3889 220.072 99.5809 220.168L100.913 222.544L100.625 224.884L100.013 225.64ZM94.6849 224.416L94.9729 224.2C95.0449 224.152 95.1169 224.104 95.1889 224.056C95.2609 223.984 95.3209 223.936 95.3689 223.912C95.5369 223.864 95.7289 223.768 95.9449 223.624C96.1609 223.48 96.2449 223.3 96.1969 223.084C96.1969 222.676 95.9809 222.22 95.5489 221.716C95.1169 221.212 94.5529 220.852 93.8569 220.636C93.5209 220.516 93.1969 220.456 92.8849 220.456C92.5729 220.456 92.2729 220.48 91.9849 220.528C91.7209 220.552 91.4689 220.588 91.2289 220.636C91.0129 220.684 90.8329 220.708 90.6889 220.708C90.1369 220.588 89.8249 220.84 89.7529 221.464C89.3929 222.016 89.2129 222.628 89.2129 223.3C89.2369 223.948 89.3089 224.572 89.4289 225.172C89.4289 225.508 89.4889 225.784 89.6089 226C89.7529 226.216 89.9209 226.348 90.1129 226.396C90.3049 226.444 90.4969 226.408 90.6889 226.288C90.9049 226.144 91.0849 225.892 91.2289 225.532L94.6849 224.416ZM117.143 218.08V219.736H116.207L114.839 220.816C113.663 220.984 112.703 221.224 111.959 221.536C111.215 221.824 110.867 222.232 110.915 222.76C110.867 222.88 110.843 223.024 110.843 223.192C110.843 223.336 110.927 223.408 111.095 223.408L110.375 227.008L110.051 227.404V231.4L109.835 233.416L109.115 234.136L105.011 233.848L104.111 232.624L104.363 231.976L104.219 229.996L104.651 226.36L105.011 223.696C105.011 223.624 105.023 223.564 105.047 223.516C105.047 223.468 105.047 223.408 105.047 223.336C105.071 223.264 105.083 223.204 105.083 223.156C105.203 223.06 105.275 222.844 105.299 222.508C105.347 222.172 105.359 221.956 105.335 221.86C105.335 221.692 105.323 221.536 105.299 221.392C105.299 221.248 105.251 220.936 105.155 220.456C105.131 220.312 105.047 220.144 104.903 219.952C104.783 219.736 104.651 219.544 104.507 219.376L104.975 218.26H105.659L109.367 217.576L110.267 218.008C110.195 218.416 110.183 218.764 110.231 219.052C110.303 219.316 110.399 219.52 110.519 219.664C110.663 219.808 110.819 219.904 110.987 219.952C111.155 219.976 111.299 219.952 111.419 219.88L112.067 219.52C112.187 219.472 112.223 219.34 112.175 219.124C112.151 218.908 112.163 218.632 112.211 218.296L116.675 217.504L117.143 218.08ZM135.323 234.244C135.251 234.244 135.095 234.256 134.855 234.28C134.639 234.28 134.399 234.292 134.135 234.316C133.871 234.316 133.619 234.328 133.379 234.352C133.139 234.352 132.971 234.352 132.875 234.352L132.083 234.424L131.471 233.992C131.447 233.632 131.471 233.212 131.543 232.732C131.639 232.252 131.687 231.88 131.687 231.616C131.975 231.616 132.035 231.328 131.867 230.752C131.675 230.176 131.603 229.72 131.651 229.384C131.675 229 131.735 228.616 131.831 228.232C131.927 227.824 131.939 227.56 131.867 227.44C131.819 227.296 131.759 227.14 131.687 226.972C131.615 226.78 131.555 226.564 131.507 226.324L131.939 223.984C131.939 222.688 131.951 221.692 131.975 220.996C132.023 220.3 132.059 219.784 132.083 219.448C132.131 219.112 132.179 218.908 132.227 218.836C132.299 218.74 132.347 218.656 132.371 218.584C132.419 218.512 132.443 218.392 132.443 218.224C132.467 218.056 132.467 217.72 132.443 217.216L133.199 216.82C133.607 216.844 134.099 216.916 134.675 217.036C135.275 217.132 135.851 217.24 136.403 217.36C136.691 217.408 136.943 217.456 137.159 217.504C137.375 217.528 137.567 217.564 137.735 217.612L138.239 218.296C137.783 218.608 137.483 218.812 137.339 218.908C137.195 219.004 137.183 219.208 137.303 219.52C137.735 219.904 138.107 220.024 138.419 219.88C138.755 219.736 138.983 219.508 139.103 219.196L141.443 218.62H142.811L143.423 218.836C143.999 219.028 144.575 219.232 145.151 219.448C145.751 219.664 146.243 219.832 146.627 219.952L147.275 221.536L147.239 221.968C147.287 222.664 147.323 223.336 147.347 223.984C147.395 224.608 147.395 225.376 147.347 226.288C147.323 226.864 147.299 227.452 147.275 228.052C147.251 228.628 147.227 229.18 147.203 229.708C147.203 230.236 147.203 230.704 147.203 231.112C147.203 231.496 147.203 231.784 147.203 231.976C147.203 232 147.227 232.096 147.275 232.264C147.347 232.432 147.443 232.612 147.563 232.804L147.311 233.2L146.627 233.524C146.291 233.548 145.859 233.608 145.331 233.704C144.827 233.8 144.407 233.848 144.071 233.848C143.927 233.848 143.807 233.8 143.711 233.704C143.615 233.584 143.399 233.536 143.063 233.56L142.559 233.128C142.607 232.816 142.619 232.564 142.595 232.372C142.571 232.156 142.535 231.976 142.487 231.832C142.439 231.664 142.391 231.52 142.343 231.4C142.295 231.28 142.271 231.16 142.271 231.04C142.295 230.68 142.331 230.284 142.379 229.852C142.427 229.516 142.475 229.132 142.523 228.7C142.595 228.244 142.679 227.8 142.775 227.368C142.823 227.104 142.847 226.768 142.847 226.36C142.847 225.928 142.847 225.508 142.847 225.1C142.847 224.668 142.847 224.26 142.847 223.876C142.847 223.492 142.859 223.204 142.883 223.012L141.839 221.176C141.743 221.152 141.647 221.128 141.551 221.104C141.455 221.08 141.347 221.044 141.227 220.996C141.035 220.948 140.843 220.96 140.651 221.032C140.483 221.104 140.315 221.188 140.147 221.284C139.979 221.38 139.823 221.476 139.679 221.572C139.535 221.668 139.403 221.716 139.283 221.716C139.283 221.788 139.151 221.728 138.887 221.536C138.647 221.32 138.443 221.116 138.275 220.924C137.867 220.588 137.567 220.528 137.375 220.744C137.207 220.936 137.063 221.2 136.943 221.536C136.967 221.8 137.003 221.98 137.051 222.076C137.123 222.172 137.195 222.244 137.267 222.292C137.363 222.316 137.447 222.316 137.519 222.292C137.399 222.388 137.303 222.568 137.231 222.832C137.159 223.072 137.099 223.348 137.051 223.66C137.027 223.948 137.015 224.26 137.015 224.596C137.039 224.908 137.075 225.196 137.123 225.46C137.171 225.748 137.135 226.252 137.015 226.972C136.919 227.692 136.895 228.52 136.943 229.456C136.943 229.816 136.931 230.2 136.907 230.608C136.883 230.992 136.859 231.376 136.835 231.76C136.811 232.12 136.787 232.456 136.763 232.768C136.739 233.056 136.727 233.284 136.727 233.452V233.56C136.271 233.944 135.803 234.172 135.323 234.244ZM168.088 221.5C168.16 221.908 168.195 222.268 168.195 222.58C168.195 222.868 168.184 223.156 168.16 223.444C168.16 223.708 168.172 223.972 168.195 224.236C168.244 224.476 168.34 224.74 168.484 225.028C168.436 225.124 168.316 225.316 168.124 225.604C167.956 225.868 167.836 226.144 167.764 226.432C167.716 226.696 167.68 226.9 167.656 227.044C167.632 227.188 167.608 227.284 167.584 227.332C167.656 227.38 167.716 227.476 167.764 227.62C167.788 227.74 167.764 227.896 167.691 228.088C167.62 228.256 167.476 228.496 167.26 228.808C166.828 229.384 166.588 229.876 166.54 230.284C166.492 230.668 166.396 230.968 166.252 231.184C166.204 231.232 166.048 231.304 165.784 231.4C165.544 231.496 165.256 231.616 164.92 231.76C164.584 231.88 164.248 232.024 163.912 232.192C163.576 232.36 163.312 232.528 163.12 232.696C162.712 232.768 162.352 232.864 162.04 232.984C161.728 233.104 161.344 233.188 160.888 233.236C160.456 233.332 160.012 233.452 159.556 233.596C159.1 233.716 158.848 233.776 158.8 233.776C157.672 233.776 157 233.812 156.784 233.884C156.592 233.956 156.364 233.992 156.1 233.992L152.824 232.804L151.312 230.608C151.312 230.032 151.288 229.552 151.24 229.168C151.216 228.76 151.18 228.412 151.132 228.124C151.084 227.812 151.048 227.524 151.024 227.26C151 226.996 151 226.696 151.024 226.36C151.096 226.288 151.204 226.12 151.348 225.856C151.492 225.568 151.636 225.244 151.78 224.884C151.948 224.524 152.104 224.152 152.248 223.768C152.416 223.384 152.536 223.06 152.608 222.796C152.8 222.244 152.944 221.764 153.04 221.356C153.136 220.924 153.208 220.54 153.256 220.204C153.448 220.084 153.604 219.952 153.724 219.808C153.844 219.664 153.964 219.544 154.084 219.448C155.068 218.872 155.92 218.404 156.64 218.044C157.36 217.66 158.032 217.42 158.656 217.324L159.736 217.252C159.856 217.276 159.964 217.3 160.06 217.324C160.156 217.348 160.252 217.372 160.348 217.396C160.492 217.444 160.624 217.48 160.744 217.504C160.864 217.504 160.936 217.504 160.96 217.504L161.68 218.62C161.68 218.836 161.632 219.016 161.536 219.16C161.44 219.28 161.536 219.364 161.824 219.412C162.136 219.484 162.304 219.532 162.328 219.556V219.592C162.712 219.592 163.108 219.508 163.516 219.34C163.924 219.148 164.332 219.052 164.74 219.052C164.836 219.052 165.004 219.1 165.244 219.196C165.484 219.268 165.736 219.364 166 219.484C166.264 219.604 166.504 219.724 166.72 219.844C166.96 219.94 167.128 220.012 167.224 220.06C167.176 220.42 167.188 220.672 167.26 220.816C167.332 220.96 167.428 221.068 167.548 221.14C167.668 221.188 167.776 221.236 167.872 221.284C167.992 221.308 168.064 221.38 168.088 221.5ZM161.644 230.5C162.004 230.26 162.352 229.492 162.688 228.196C162.88 227.5 163.036 226.984 163.156 226.648C163.3 226.288 163.372 225.952 163.372 225.64C163.372 225.112 163.192 224.488 162.832 223.768C162.64 223.384 162.496 223.06 162.4 222.796C162.304 222.532 162.232 222.268 162.184 222.004C161.992 221.908 161.884 221.764 161.86 221.572C161.86 221.356 161.764 221.14 161.572 220.924C161.332 220.732 161.188 220.66 161.14 220.708C161.092 220.756 161.044 220.78 160.996 220.78H160.672C160.48 220.78 160.216 220.816 159.88 220.888C159.568 220.96 159.316 221.128 159.124 221.392C158.836 221.704 158.584 221.956 158.368 222.148C158.176 222.316 158.068 222.424 158.044 222.472C157.804 222.928 157.588 223.324 157.396 223.66C157.204 223.972 157.048 224.224 156.928 224.416L156.604 225.172C156.46 225.532 156.4 226.012 156.424 226.612C156.472 226.708 156.52 226.924 156.568 227.26C156.616 227.572 156.472 227.908 156.136 228.268C156.064 228.34 155.992 228.484 155.92 228.7C155.848 228.892 155.8 229.12 155.776 229.384C155.752 229.648 155.776 229.912 155.848 230.176C155.944 230.44 156.124 230.668 156.388 230.86C156.724 231.1 157.072 231.34 157.432 231.58C157.792 231.796 158.02 231.904 158.116 231.904H158.512C158.656 231.904 158.788 231.94 158.908 232.012L161.644 230.5ZM196.614 226.828C196.374 226.996 196.038 227.08 195.606 227.08C195.27 227.08 194.982 227.08 194.742 227.08C194.526 227.08 194.346 227.068 194.202 227.044L193.194 227.692C193.122 227.716 192.99 227.752 192.798 227.8C192.678 227.848 192.522 227.896 192.33 227.944C192.162 227.992 191.958 228.064 191.718 228.16C191.238 228.28 190.794 228.436 190.386 228.628C190.002 228.82 189.642 229.024 189.306 229.24C189.138 229.432 188.934 229.552 188.694 229.6C188.454 229.624 188.346 229.684 188.37 229.78C188.25 230.116 188.154 230.416 188.082 230.68C188.01 230.944 187.974 231.22 187.974 231.508C187.974 231.844 187.974 232.144 187.974 232.408C187.974 232.672 187.95 232.876 187.902 233.02L192.006 231.472C192.27 231.52 192.474 231.544 192.618 231.544C192.762 231.544 192.894 231.544 193.014 231.544C193.134 231.568 193.266 231.544 193.41 231.472C193.554 231.376 193.758 231.268 194.022 231.148L194.85 231.184L197.118 231.868L197.478 232.372C197.526 232.588 197.622 232.9 197.766 233.308C197.934 233.692 198.054 234.076 198.126 234.46C198.174 234.652 198.222 234.868 198.27 235.108C198.342 235.372 198.426 235.672 198.522 236.008C198.69 236.68 198.834 237.052 198.954 237.124L198.63 238.06L198.954 238.96L198.774 239.644L196.83 241.12C196.734 241.096 196.65 241.072 196.578 241.048C196.506 241.024 196.434 241 196.362 240.976C196.242 240.928 196.122 240.892 196.002 240.868C195.882 240.844 195.786 240.832 195.714 240.832L192.906 242.128C192.81 242.104 192.702 242.08 192.582 242.056C192.486 242.056 192.378 242.032 192.258 241.984C192.042 241.936 191.754 241.876 191.394 241.804C191.058 241.756 190.662 241.684 190.206 241.588C189.75 241.492 189.222 241.396 188.622 241.3C188.046 241.204 187.482 241.12 186.93 241.048C186.402 240.976 185.91 240.928 185.454 240.904C185.022 240.88 184.722 240.88 184.554 240.904L182.934 240.58L182.61 240.292L182.034 237.952L182.214 237.232C182.79 236.944 183.282 236.536 183.69 236.008C184.098 235.504 184.326 234.868 184.374 234.1C184.398 233.692 184.41 233.356 184.41 233.092C184.41 232.828 184.41 232.612 184.41 232.444C184.41 232.276 184.398 232.144 184.374 232.048C184.374 231.952 184.374 231.844 184.374 231.724L184.662 230.104L185.202 229.636L185.382 227.8C185.31 227.704 185.202 227.56 185.058 227.368C184.938 227.152 184.794 226.924 184.626 226.684C184.458 226.444 184.29 226.216 184.122 226C183.978 225.76 183.846 225.556 183.726 225.388L183.834 223.516L185.49 220.096L186.426 218.728L189.954 217.108L193.806 218.656L194.706 218.224C194.778 218.224 194.85 218.212 194.922 218.188C194.994 218.164 195.09 218.152 195.21 218.152C195.33 218.128 195.486 218.092 195.678 218.044C196.038 217.996 196.35 217.864 196.614 217.648C196.878 217.432 197.13 217.144 197.37 216.784C197.562 217.024 197.742 217.24 197.91 217.432C198.078 217.624 198.234 217.804 198.378 217.972C198.474 218.068 198.558 218.164 198.63 218.26C198.702 218.332 198.774 218.404 198.846 218.476V220.348L198.486 220.708L195.966 221.248L196.29 222.4L196.398 224.056L197.01 225.64L196.614 226.828ZM188.154 226.576L191.754 225.712C191.922 225.544 192.042 225.292 192.114 224.956C192.21 224.596 192.09 224.248 191.754 223.912L190.818 222.256L189.738 220.096H188.442L188.37 221.392C187.746 221.272 187.338 221.56 187.146 222.256C187.026 222.616 186.93 222.916 186.858 223.156C186.786 223.372 186.738 223.564 186.714 223.732L188.154 226.576ZM187.398 238.888L191.034 239.392C192.378 239.512 193.254 239.512 193.662 239.392C193.686 239.272 193.698 239.14 193.698 238.996C193.722 238.876 193.722 238.756 193.698 238.636C193.698 238.396 193.59 238.108 193.374 237.772C193.158 237.46 193.05 237.148 193.05 236.836C193.05 236.716 193.086 236.644 193.158 236.62C193.23 236.62 193.242 236.56 193.194 236.44C193.17 236.344 193.146 236.176 193.122 235.936C193.122 235.696 193.11 235.444 193.086 235.18C193.062 234.916 193.026 234.664 192.978 234.424C192.954 234.184 192.906 234.028 192.834 233.956C192.69 234.004 192.45 234.088 192.114 234.208C191.802 234.328 191.454 234.448 191.07 234.568C190.71 234.688 190.362 234.808 190.026 234.928C189.69 235.024 189.45 235.084 189.306 235.108C189.09 235.54 188.802 235.804 188.442 235.9C188.106 236.02 187.734 236.176 187.326 236.368C187.398 236.56 187.338 236.752 187.146 236.944C186.978 237.064 186.534 237.28 185.814 237.592C185.07 237.928 184.65 238.252 184.554 238.564L187.398 238.888ZM206.188 211.744C206.236 211.552 206.26 211.372 206.26 211.204C206.284 211.012 206.308 210.82 206.332 210.628C206.332 210.46 206.332 210.316 206.332 210.196C206.356 210.076 206.368 209.968 206.368 209.872L206.548 209.476C206.62 209.452 206.716 209.44 206.836 209.44C206.956 209.44 207.1 209.428 207.268 209.404C207.772 209.38 208.096 209.32 208.24 209.224C208.24 209.2 208.3 209.152 208.42 209.08C208.492 209.008 208.552 208.96 208.6 208.936C208.624 208.936 208.708 208.948 208.852 208.972C208.996 208.996 209.188 209.044 209.428 209.116C209.836 209.212 210.124 209.26 210.292 209.26C210.508 209.26 210.628 209.248 210.652 209.224C210.676 209.2 210.748 209.2 210.868 209.224L211.192 209.836L211.516 211.672L210.76 212.932C210.736 212.956 210.712 212.98 210.688 213.004C210.688 213.028 210.664 213.052 210.616 213.076C210.496 213.148 210.352 213.256 210.184 213.4L210.076 213.508L208.996 213.616C208.852 213.568 208.684 213.52 208.492 213.472C208.3 213.4 208.072 213.316 207.808 213.22C207.544 213.124 207.316 213.04 207.124 212.968C206.932 212.872 206.764 212.8 206.62 212.752L206.44 212.572L206.188 211.744ZM210.652 217.936L210.508 219.232L210.652 219.772L210.436 220.348L210.544 221.176L210.364 221.86L210.472 222.076L210.328 223.696L210.184 227.116C210.184 227.284 210.16 227.5 210.112 227.764C210.064 228.004 210.028 228.268 210.004 228.556C209.98 228.82 209.98 229.096 210.004 229.384C210.028 229.648 210.1 229.876 210.22 230.068C210.196 230.428 210.16 230.848 210.112 231.328C210.064 231.808 209.98 232.36 209.86 232.984C209.668 233.248 209.464 233.488 209.248 233.704C209.056 233.896 208.684 234.004 208.132 234.028C207.82 234.052 207.508 234.076 207.196 234.1C206.908 234.124 206.632 234.16 206.368 234.208C206.224 234.232 206.08 234.256 205.936 234.28C205.792 234.304 205.636 234.34 205.468 234.388L204.568 233.236C204.592 233.116 204.628 232.792 204.676 232.264C204.748 231.712 204.808 231.064 204.856 230.32C204.904 229.576 204.928 228.784 204.928 227.944C204.952 227.104 204.928 226.324 204.856 225.604L205.072 224.92L205.396 223.336L205.504 222.076L205.72 221.644L205.756 221.32L205.972 220.348L206.152 218.368L209.392 217.108L210.652 217.936ZM215.317 221.068C215.221 220.804 215.149 220.456 215.101 220.024C215.053 219.568 215.005 219.184 214.957 218.872L215.641 217.576C216.073 217.504 216.373 217.48 216.541 217.504C216.733 217.528 216.877 217.564 216.973 217.612C217.117 217.588 217.321 217.564 217.585 217.54C217.873 217.492 218.305 217.42 218.881 217.324C218.929 216.916 219.013 216.46 219.133 215.956C219.253 215.452 219.337 214.888 219.385 214.264L218.881 213.76L218.845 213.22L219.241 212.284H223.561L225.181 212.356C225.349 212.548 225.421 212.776 225.397 213.04C225.373 213.28 225.325 213.508 225.253 213.724C225.181 213.94 225.109 214.12 225.037 214.264C224.989 214.384 225.001 214.42 225.073 214.372V216.604C224.929 216.724 224.821 216.868 224.749 217.036C224.677 217.18 224.617 217.348 224.569 217.54L224.641 217.612L226.729 217.54C226.801 217.564 226.873 217.588 226.945 217.612C227.017 217.636 227.101 217.66 227.197 217.684C227.485 217.756 227.857 217.792 228.313 217.792L228.637 218.152L228.241 219.88C228.097 219.88 227.905 219.904 227.665 219.952C227.425 219.976 227.173 220.012 226.909 220.06C226.669 220.084 226.441 220.108 226.225 220.132C226.033 220.156 225.901 220.168 225.829 220.168L224.317 220.6C224.221 220.864 224.149 221.092 224.101 221.284C224.077 221.452 224.065 221.62 224.065 221.788C224.065 221.932 224.065 222.1 224.065 222.292C224.089 222.46 224.101 222.676 224.101 222.94L223.849 227.512C223.777 227.92 223.753 228.292 223.777 228.628C223.825 228.964 223.885 229.252 223.957 229.492C224.005 229.612 224.053 229.732 224.101 229.852C224.149 229.972 224.197 230.092 224.245 230.212L224.569 231.148L224.713 231.328L228.205 230.248L229.537 229.924L230.329 230.644L229.465 231.796L228.637 232.228L227.917 232.372L223.777 234.208C223.657 234.208 223.561 234.196 223.489 234.172C223.369 234.172 223.225 234.172 223.057 234.172C222.913 234.148 222.745 234.124 222.553 234.1C221.689 234.028 221.041 234.052 220.609 234.172C220.609 233.5 220.345 233.044 219.817 232.804C219.553 232.636 219.313 232.492 219.097 232.372C218.905 232.252 218.725 232.156 218.557 232.084C218.557 231.676 218.557 231.4 218.557 231.256C218.581 231.112 218.557 230.92 218.485 230.68C218.437 230.56 218.425 230.296 218.449 229.888C218.473 229.456 218.497 228.916 218.521 228.268C218.569 227.596 218.545 227.056 218.449 226.648C218.353 226.216 218.209 226 218.017 226C218.041 225.688 218.053 225.376 218.053 225.064C218.077 224.752 218.101 224.476 218.125 224.236C218.149 224.116 218.161 223.984 218.161 223.84C218.161 223.696 218.161 223.564 218.161 223.444C218.209 223.348 218.245 223.276 218.269 223.228C218.293 223.156 218.317 223.108 218.341 223.084C218.365 223.036 218.473 222.976 218.665 222.904C218.881 222.808 219.073 222.556 219.241 222.148C219.793 221.764 220.033 221.416 219.961 221.104C219.889 220.792 219.469 220.576 218.701 220.456C218.533 220.48 218.389 220.528 218.269 220.6C218.173 220.648 218.125 220.78 218.125 220.996L215.965 221.464L215.317 221.068ZM247.739 223.228L247.883 225.352C247.859 225.376 247.823 225.388 247.775 225.388C247.727 225.388 247.679 225.4 247.631 225.424C247.583 225.424 247.523 225.424 247.451 225.424C247.163 225.472 247.031 225.412 247.055 225.244H246.119C245.135 225.196 243.323 225.232 240.683 225.352C239.315 225.4 238.235 225.472 237.443 225.568C236.651 225.64 236.111 225.748 235.823 225.892C235.703 225.94 235.607 225.976 235.535 226C235.487 226 235.451 226 235.427 226C235.427 226 235.427 226.024 235.427 226.072C235.451 226.096 235.463 226.156 235.463 226.252H233.735L232.655 225.748C232.607 225.412 232.547 225.028 232.475 224.596C232.427 224.14 232.379 223.708 232.331 223.3L232.655 222.616C232.967 222.568 233.207 222.544 233.375 222.544C233.567 222.544 233.711 222.556 233.807 222.58C233.927 222.604 234.011 222.628 234.059 222.652C234.107 222.676 234.155 222.688 234.203 222.688C234.227 222.688 234.431 222.664 234.815 222.616C235.199 222.568 235.775 222.508 236.543 222.436C237.311 222.34 238.163 222.28 239.099 222.256C240.059 222.208 241.091 222.184 242.195 222.184H247.091L247.739 223.228ZM255.12 234.748C254.952 234.748 254.652 234.772 254.22 234.82C253.812 234.844 253.512 234.856 253.32 234.856L252.528 234.928L251.916 234.496C251.892 234.136 251.916 233.716 251.988 233.236C252.084 232.756 252.132 232.384 252.132 232.12C252.42 232.12 252.48 231.832 252.312 231.256C252.12 230.68 252.048 230.224 252.096 229.888C252.12 229.504 252.18 229.18 252.276 228.916C252.372 228.628 252.384 228.424 252.312 228.304C252.264 228.16 252.204 228.004 252.132 227.836C252.06 227.644 252 227.428 251.952 227.188L252.384 224.848C252.48 224.488 252.54 224.092 252.564 223.66C252.588 223.228 252.6 222.796 252.6 222.364C252.624 221.908 252.66 221.464 252.708 221.032C252.756 220.576 252.852 220.144 252.996 219.736L253.032 218.8C253.056 218.704 253.116 218.608 253.212 218.512C253.308 218.416 253.392 218.332 253.464 218.26C253.56 218.164 253.632 218.08 253.68 218.008C253.752 217.912 253.752 217.804 253.68 217.684C253.728 217.42 253.644 217.192 253.428 217C253.236 216.808 253.02 216.7 252.78 216.676C252.876 216.508 252.948 216.22 252.996 215.812C253.068 215.38 253.116 214.9 253.14 214.372C253.188 213.844 253.212 213.292 253.212 212.716C253.236 212.14 253.248 211.612 253.248 211.132L254.004 210.736C254.412 210.76 254.796 210.832 255.156 210.952C255.54 211.048 256.008 211.156 256.56 211.276C256.848 211.324 257.1 211.372 257.316 211.42C257.532 211.444 257.724 211.48 257.892 211.528L258.396 212.212C258.396 212.236 258.384 212.296 258.36 212.392C258.36 212.488 258.348 212.584 258.324 212.68C258.324 212.776 258.312 212.872 258.288 212.968C258.288 213.04 258.276 213.076 258.252 213.076C258.108 213.052 258.048 213.268 258.072 213.724V217.324C257.928 217.468 257.808 217.66 257.712 217.9C257.616 218.116 257.532 218.368 257.46 218.656C257.388 218.944 257.316 219.244 257.244 219.556C257.196 219.844 257.148 220.12 257.1 220.384C257.532 220.768 257.904 220.888 258.216 220.744C258.552 220.6 258.78 220.372 258.9 220.06L261.024 220.204H262.392L263.004 220.42C263.58 220.612 264.096 220.816 264.552 221.032C265.032 221.248 265.464 221.416 265.848 221.536L266.496 223.12L266.46 223.552C266.436 223.576 266.496 223.876 266.64 224.452C266.784 225.004 266.832 225.856 266.784 227.008C266.736 228.16 266.7 229.24 266.676 230.248C266.652 231.256 266.64 231.952 266.64 232.336C266.64 232.36 266.664 232.456 266.712 232.624C266.784 232.792 266.88 232.972 267 233.164L266.748 233.56L266.064 233.884C265.728 233.908 265.356 233.968 264.948 234.064C264.564 234.16 264.204 234.208 263.868 234.208C263.724 234.208 263.604 234.16 263.508 234.064C263.412 233.944 263.196 233.896 262.86 233.92L262.356 233.488C262.404 233.176 262.416 232.924 262.392 232.732C262.368 232.516 262.332 232.336 262.284 232.192C262.236 232.024 262.188 231.88 262.14 231.76C262.092 231.64 262.068 231.52 262.068 231.4C262.092 231.232 262.104 231.076 262.104 230.932C262.128 230.764 262.152 230.584 262.176 230.392C262.224 230.08 262.272 229.732 262.32 229.348C262.392 228.964 262.476 228.544 262.572 228.088C262.668 227.536 262.692 227.044 262.644 226.612C262.62 226.156 262.632 225.724 262.68 225.316L261.42 222.76C261.324 222.736 261.228 222.712 261.132 222.688C261.036 222.664 260.928 222.628 260.808 222.58C260.424 222.484 260.1 222.46 259.836 222.508C259.572 222.532 259.32 222.556 259.08 222.58C259.08 222.652 258.948 222.592 258.684 222.4C258.444 222.184 258.24 221.98 258.072 221.788C257.664 221.452 257.364 221.392 257.172 221.608C257.004 221.8 256.86 222.064 256.74 222.4C256.764 222.664 256.8 222.844 256.848 222.94C256.92 223.036 256.992 223.108 257.064 223.156C257.16 223.18 257.244 223.18 257.316 223.156C257.196 223.252 257.1 223.432 257.028 223.696C256.956 223.936 256.896 224.212 256.848 224.524C256.824 224.812 256.812 225.124 256.812 225.46C256.836 225.772 256.872 226.06 256.92 226.324C256.968 226.612 256.932 227.056 256.812 227.656C256.716 228.256 256.692 229.024 256.74 229.96C256.74 230.32 256.728 230.704 256.704 231.112C256.68 231.496 256.656 231.88 256.632 232.264C256.608 232.624 256.584 232.96 256.56 233.272C256.536 233.56 256.524 233.788 256.524 233.956V234.064C256.068 234.448 255.6 234.676 255.12 234.748ZM288.335 218.8L287.651 223.84L287.759 225.892L287.579 228.052L287.039 230.14L284.951 233.236C284.039 233.932 283.055 234.4 281.999 234.64C280.943 234.88 279.803 234.94 278.579 234.82L276.887 234.064H275.915C275.531 234.064 274.859 233.692 273.899 232.948C273.491 232.636 273.143 232.36 272.855 232.12C272.783 232.072 272.711 232.024 272.639 231.976C272.591 231.928 272.543 231.88 272.495 231.832C272.495 231.64 272.471 231.4 272.423 231.112C272.375 230.824 272.303 230.464 272.207 230.032C272.135 229.6 272.063 229.264 271.991 229.024C271.943 228.76 271.907 228.568 271.883 228.448C271.883 228.376 271.895 228.292 271.919 228.196C271.943 228.076 271.943 227.968 271.919 227.872C271.919 227.752 271.883 227.656 271.811 227.584C271.739 227.512 271.607 227.476 271.415 227.476L271.523 225.46C271.619 225.196 271.667 225.016 271.667 224.92C271.667 224.824 271.655 224.74 271.631 224.668C271.607 224.596 271.595 224.5 271.595 224.38C271.595 224.26 271.655 224.056 271.775 223.768L271.955 222.436C272.171 222.508 272.339 222.448 272.459 222.256C272.603 222.064 272.687 221.836 272.711 221.572C272.759 221.284 272.747 221.032 272.675 220.816C272.603 220.576 272.459 220.456 272.243 220.456C272.147 220.264 272.087 220.06 272.063 219.844C272.039 219.604 272.051 219.484 272.099 219.484C272.099 219.34 272.087 219.172 272.063 218.98C272.039 218.788 272.027 218.428 272.027 217.9L273.071 217.036C273.359 217.06 273.719 217.084 274.151 217.108C274.583 217.108 275.027 217.108 275.483 217.108C275.963 217.108 276.419 217.12 276.851 217.144C277.283 217.144 277.631 217.168 277.895 217.216L278.183 217.684C278.039 218.164 277.967 218.512 277.967 218.728C277.943 218.872 277.943 218.992 277.967 219.088L277.895 220.744C277.823 220.888 277.751 221.104 277.679 221.392C277.631 221.656 277.583 221.956 277.535 222.292C277.511 222.604 277.487 222.928 277.463 223.264C277.439 223.6 277.427 223.888 277.427 224.128C277.307 224.536 277.187 224.968 277.067 225.424C276.947 225.856 276.935 226.264 277.031 226.648C277.079 226.768 277.103 226.924 277.103 227.116C277.127 227.284 277.211 227.608 277.355 228.088C277.307 228.232 277.271 228.412 277.247 228.628C277.223 228.844 277.211 229.072 277.211 229.312C277.235 229.528 277.283 229.756 277.355 229.996C277.451 230.212 277.583 230.392 277.751 230.536L279.119 231.616L281.279 231.796C281.519 232.108 281.735 232.264 281.927 232.264C282.119 232.24 282.275 231.988 282.395 231.508L283.655 230.752L284.663 228.088L284.699 226.432V224.668C285.179 224.332 285.443 223.972 285.491 223.588C285.539 223.204 285.287 222.748 284.735 222.22L284.627 218.08L285.347 217.432L287.543 217.612L288.335 218.8ZM301.579 210.772L300.715 212.284C300.283 212.62 300.079 212.968 300.103 213.328C300.127 213.688 300.271 214.072 300.535 214.48C300.487 214.84 300.451 215.128 300.427 215.344C300.427 215.56 300.427 215.764 300.427 215.956C300.451 216.124 300.475 216.316 300.499 216.532C300.547 216.724 300.607 216.976 300.679 217.288L300.319 218.764L300.247 220.492L300.751 220.78L301.471 220.636C301.639 220.516 301.795 220.372 301.939 220.204C302.083 220.012 302.203 219.832 302.299 219.664C302.419 219.496 302.503 219.352 302.551 219.232C302.623 219.112 302.671 219.052 302.695 219.052C302.719 219.052 302.791 219.052 302.911 219.052C303.055 219.028 303.211 219.004 303.379 218.98C303.571 218.932 303.763 218.884 303.955 218.836C304.171 218.788 304.351 218.728 304.495 218.656C304.567 218.656 304.843 218.692 305.323 218.764C305.827 218.812 306.391 218.968 307.015 219.232C307.183 219.28 307.351 219.352 307.519 219.448C307.687 219.52 307.867 219.604 308.059 219.7L309.067 220.204C309.379 220.348 309.643 220.48 309.859 220.6C310.075 220.72 310.219 220.78 310.291 220.78L310.903 222.796C310.807 222.868 310.723 222.976 310.651 223.12C310.603 223.264 310.555 223.408 310.507 223.552C310.483 223.696 310.483 223.828 310.507 223.948C310.531 224.068 310.579 224.14 310.651 224.164C310.699 224.404 310.735 224.572 310.759 224.668C310.783 224.764 310.819 224.836 310.867 224.884C310.915 224.932 310.975 224.98 311.047 225.028C311.143 225.076 311.275 225.172 311.443 225.316L311.011 228.664L309.067 231.904C308.899 232.048 308.635 232.228 308.275 232.444C307.915 232.636 307.495 232.828 307.015 233.02C306.559 233.212 306.067 233.38 305.539 233.524C305.011 233.644 304.483 233.704 303.955 233.704C303.595 233.848 303.367 233.956 303.271 234.028C303.175 234.076 303.079 234.1 302.983 234.1C302.911 234.076 302.755 234.028 302.515 233.956C302.299 233.86 301.891 233.752 301.291 233.632C301.147 233.488 301.015 233.38 300.895 233.308C300.799 233.236 300.703 233.164 300.607 233.092C300.535 233.02 300.463 232.924 300.391 232.804C300.319 232.684 300.247 232.492 300.175 232.228C299.935 231.988 299.623 231.772 299.239 231.58C298.855 231.364 298.531 231.292 298.267 231.364C297.931 231.844 297.595 232.228 297.259 232.516C296.923 232.804 296.551 232.936 296.143 232.912C295.879 232.768 295.591 232.684 295.279 232.66C294.991 232.636 294.727 232.636 294.487 232.66C294.247 232.66 294.043 232.66 293.875 232.66C293.731 232.636 293.659 232.564 293.659 232.444C293.683 232.348 293.755 232.228 293.875 232.084C293.923 231.988 293.995 231.868 294.091 231.724C294.211 231.556 294.331 231.364 294.451 231.148L294.379 230.536L295.027 226.144C294.931 225.88 294.895 225.448 294.919 224.848C294.943 224.224 294.979 223.384 295.027 222.328C295.099 221.272 295.159 219.964 295.207 218.404C295.279 216.82 295.303 214.936 295.279 212.752C295.303 212.392 295.351 212.044 295.423 211.708C295.519 211.372 295.603 211.06 295.675 210.772C295.747 210.46 295.795 210.184 295.819 209.944C295.843 209.68 295.819 209.44 295.747 209.224C295.723 209.008 295.759 208.84 295.855 208.72C295.951 208.576 296.131 208.528 296.395 208.576L300.031 208.72L300.895 209.008L301.579 210.772ZM300.643 231.076C300.931 231.22 301.159 231.328 301.327 231.4C301.495 231.448 301.639 231.472 301.759 231.472C301.903 231.472 302.035 231.448 302.155 231.4C302.275 231.352 302.407 231.292 302.551 231.22L303.703 230.86L305.179 229.42C305.587 229.3 305.899 229.108 306.115 228.844C306.355 228.556 306.487 228.172 306.511 227.692C306.607 227.284 306.715 226.912 306.835 226.576C306.955 226.216 307.039 225.868 307.087 225.532C307.135 225.196 307.135 224.86 307.087 224.524C307.063 224.164 306.955 223.78 306.763 223.372L306.295 222.184L304.387 221.248C304.051 221.176 303.691 221.128 303.307 221.104C302.923 221.08 302.563 221.104 302.227 221.176C301.891 221.248 301.603 221.38 301.363 221.572C301.123 221.74 300.991 221.992 300.967 222.328L300.283 223.048C300.163 224.032 300.091 224.824 300.067 225.424C300.019 226.048 299.959 226.648 299.887 227.224C299.839 227.8 299.791 228.172 299.743 228.34C299.647 228.676 299.647 228.988 299.743 229.276C299.839 229.54 299.839 229.708 299.743 229.78L300.643 231.076Z" fill="white"/>
<path d="M236.656 104.094V108.562C236.647 116.124 233.902 123.426 228.929 129.121C223.955 134.816 217.089 138.52 209.598 139.548C212.656 143.46 214.315 148.284 214.312 153.25V175.594C214.312 176.779 213.842 177.916 213.004 178.754C212.166 179.592 211.029 180.062 209.844 180.062H174.094C172.909 180.062 171.772 179.592 170.934 178.754C170.096 177.916 169.625 176.779 169.625 175.594V166.656H156.219C150.293 166.656 144.61 164.302 140.419 160.112C136.229 155.922 133.875 150.238 133.875 144.312C133.875 140.757 132.463 137.347 129.948 134.833C127.434 132.319 124.024 130.906 120.469 130.906C119.284 130.906 118.147 130.435 117.309 129.597C116.471 128.759 116 127.623 116 126.437C116 125.252 116.471 124.116 117.309 123.278C118.147 122.44 119.284 121.969 120.469 121.969C123.403 121.969 126.308 122.547 129.019 123.67C131.73 124.792 134.193 126.438 136.268 128.513C138.343 130.588 139.989 133.051 141.112 135.762C142.235 138.473 142.812 141.378 142.812 144.312C142.812 147.868 144.225 151.278 146.739 153.792C149.253 156.306 152.663 157.719 156.219 157.719H169.625V153.25C169.622 148.284 171.282 143.46 174.34 139.548C166.849 138.52 159.982 134.816 155.009 129.121C150.036 123.426 147.291 116.124 147.281 108.562V104.094C147.337 98.54 148.816 93.0934 151.577 88.2743C150.211 83.8681 149.773 79.2267 150.29 74.6427C150.807 70.0587 152.269 65.6316 154.582 61.6406C154.974 60.9611 155.539 60.3969 156.218 60.0046C156.898 59.6124 157.669 59.406 158.453 59.4062C163.658 59.3953 168.794 60.6019 173.449 62.9297C178.105 65.2575 182.151 68.6419 185.266 72.8125H198.672C201.786 68.6419 205.833 65.2575 210.488 62.9297C215.144 60.6019 220.279 59.3953 225.484 59.4062C226.269 59.406 227.04 59.6124 227.719 60.0046C228.399 60.3969 228.963 60.9611 229.355 61.6406C231.669 65.6315 233.13 70.0589 233.647 74.6431C234.163 79.2273 233.723 83.8687 232.355 88.2743C235.121 93.0915 236.602 98.539 236.656 104.094Z" fill="white"/>
</svg>
